<svg xmlns="http://www.w3.org/2000/svg" width="256" height="256"><path fill-opacity=".016" d="M0 128.004v128.004l128.25-.254 128.25-.254.254-127.75L257.008 0H0v128.004m.485.496c0 70.4.119 99.053.265 63.672.146-35.38.146-92.98 0-128C.604 29.153.485 58.1.485 128.5" fill="#1976D2" fill-rule="evenodd"/><path fill-opacity=".159" d="M113.5.625c-31.511 4.75-54.306 15.991-75.595 37.28C19.091 56.72 8.017 77.018 2.394 103c-2.576 11.9-2.614 38.136-.073 50 6.834 31.909 23.574 58.491 48.803 77.496 15.898 11.976 35.88 20.751 54.747 24.041 12.545 2.187 35.053 1.924 47.206-.553 16.811-3.426 32.542-9.973 47.288-19.68 9.18-6.044 27.895-24.759 33.939-33.939 14.999-22.784 23.361-50.905 22.4-75.331C254.338 64.922 212.829 15.402 154 2.51 146.706.911 119.882-.337 113.5.625m-6.143 4.946c-42.185 7.086-78.578 36.365-94.44 75.976-10.86 27.122-11.851 58.521-2.713 85.953 14.32 42.985 50.258 74.246 95.614 83.169 11.588 2.28 34.664 2.222 45.682-.115 52.664-11.169 91.027-50.788 99.714-102.977 1.72-10.34 1.435-31.467-.566-41.759C240.49 53.549 200.802 14.539 148.619 5.533c-10.762-1.858-30.083-1.839-41.262.038M71.193 46.072c-19.932 2.588-34.28 11.255-40.876 24.69C27.684 76.125 27.5 77.316 27.5 89c0 11.742.169 12.821 2.784 17.784 3.265 6.197 9.126 12.352 14.278 14.995l3.659 1.878-5.55 2.716C30.254 132.448 23 144.994 23 160.395c0 23.779 13.592 39.927 38.094 45.259 8.404 1.829 18.476 1.988 101.185 1.596l52.779-.25-.279-13.25-.279-13.25H144V137h42v-24l-21.25.001-21.25.001.29-20.001.29-20.001H214V45l-68.25.127c-37.538.07-71.088.495-74.557.945m2.511 28.353c-5.626 1.512-10.202 5.523-11.789 10.331-.622 1.885-.96 6.433-.753 10.108.463 8.185 2.84 11.974 9.595 15.297 4.301 2.116 6.349 2.366 21.993 2.685l17.25.352V73l-15.75.067c-9.494.041-17.655.58-20.546 1.358M.389 128.5c.001 7.15.161 9.944.353 6.208.193-3.735.192-9.585-.003-13-.194-3.414-.352-.358-.35 6.792m70.836 9.671c-5.532 1.238-11.629 6.972-13.109 12.329-3.764 13.625 1.812 25.164 13.766 28.484 1.99.553 11.381 1.007 20.868 1.01L110 180v-43l-17.25.107c-9.487.059-19.174.538-21.525 1.064" fill="#1976D2" fill-rule="evenodd"/><path fill-opacity=".119" d="M111 1.532C97.719 3.387 85.349 7.207 72.5 13.423 46.059 26.214 26.9 45.225 13.971 71.5 3.136 93.521-1.208 115.454.802 138 3.52 168.483 14.728 193.813 35 215.287c11.374 12.049 21.319 19.645 34.625 26.447 18.084 9.246 33.033 13.111 53.988 13.961 15.811.64 28.863-.994 42.65-5.342 36.793-11.603 66.704-39.268 80.768-74.703 7.471-18.823 11.637-46.332 8.983-59.324-.542-2.654-1.698-8.651-2.57-13.326-3.189-17.11-11.729-36.485-22.426-50.875-7.7-10.359-23.956-25.479-34.378-31.976C180.086 9.83 161.099 3.236 141.718 1.075 129.748-.26 123.132-.161 111 1.532m4.5 2.524C87.083 7.18 59.956 20.113 40.034 40.034 14.195 65.874.592 103.087 3.978 138.672 8.303 184.108 33.69 220.799 74.5 240.59c28.612 13.877 62.208 16.144 92.5 6.244 71.379-23.329 106.25-104.99 73.59-172.334-14.297-29.48-37.089-50.725-66.936-62.392-17.663-6.905-40.201-10.025-58.154-8.052m28.179 41.598c-.373.374-.679 6.454-.679 13.513V72h71.058l-.279-13.25-.279-13.25-34.571-.263c-19.013-.144-34.876.043-35.25.417M65.5 47.382c-19.387 3.834-31.929 13.553-36.473 28.265-3.564 11.541-2.183 25.393 3.416 34.262 2.867 4.542 9.241 10.341 13.381 12.173 3.489 1.545 4.156 2.913 1.426 2.927-3.18.017-12 5.849-15.73 10.402-9.499 11.592-10.961 31.717-3.434 47.267 3.36 6.941 10.874 13.933 19.133 17.803C58.391 205.717 66.803 207 89.958 207H110v-25.734l-18.25-.484c-20.137-.534-23.653-1.37-29.481-7.011-4.02-3.89-5.571-8.441-5.463-16.027.117-8.269 3.078-14.003 9.04-17.508 4.583-2.694 4.956-2.741 24.404-3.061l19.75-.325V113l-15.75-.006c-8.662-.003-17.378-.457-19.368-1.01-5.688-1.58-10.183-5.115-12.705-9.992-2.968-5.739-2.606-14.944.804-20.461 4.254-6.884 14.382-9.507 36.769-9.523L110 72V46l-19.25.098c-10.588.054-21.95.632-25.25 1.284M143 125v12h43v-24h-43v12M.349 128c0 4.675.173 6.588.383 4.25.211-2.338.211-6.163 0-8.5-.21-2.338-.383-.425-.383 4.25" fill="#1976D2" fill-rule="evenodd"/><path fill-opacity=".285" d="M115.742 1.116C61.72 6.995 17.797 44.975 4.531 97.279-6.539 140.93 6.196 186.463 38.436 218.5c24.945 24.787 54.447 36.882 90.064 36.922 16.494.018 25.625-1.43 40.711-6.456 42.842-14.272 75.923-52.199 84.143-96.466 3.202-17.246 3.903-25.269 2.772-31.764-.597-3.43-1.769-10.343-2.603-15.364-6.425-38.655-32.677-73.513-69.023-91.648-19.965-9.961-47.195-14.954-68.758-12.608M115 3.628c-29.194 3.675-54.739 16.047-75.032 36.34C22.213 57.723 10.794 78.882 5.412 104c-2.538 11.845-2.581 36.291-.084 48 5.777 27.088 17.461 48.037 37.302 66.88 15.85 15.053 33.701 25.001 55.179 30.752 12.906 3.455 37.009 4.403 50.827 1.998 26.3-4.578 49.118-16.391 67.86-35.134 18.743-18.742 30.556-41.56 35.134-67.86 2.405-13.818 1.457-37.921-1.998-50.827-5.751-21.478-15.699-39.329-30.752-55.179-18.737-19.729-39.997-31.628-66.38-37.153-7.762-1.625-30.406-2.742-37.5-1.849m-45.685 43.38c-14.404 2.106-28.501 9.125-34.241 17.049C29.755 71.4 27.686 78.349 27.648 89c-.027 7.572.427 10.67 2.235 15.262 2.65 6.727 9.672 14.442 16.199 17.796 4.241 2.179 4.318 2.298 1.918 2.955-8.761 2.401-16.766 9.293-20.891 17.987-2.387 5.031-2.607 6.566-2.58 18 .038 16.202 1.999 21.71 10.883 30.572 11.707 11.676 21.175 14.416 52.338 15.146l22.25.521V181H94.049c-18.311 0-24.38-1.008-29.829-4.956-12.386-8.972-10.204-31.155 3.672-37.334 3.958-1.762 7.254-2.117 23.358-2.512l18.75-.46v-21.482l-16.944-.441c-16.362-.426-17.14-.542-22.673-3.378-4.445-2.279-6.251-3.925-8.056-7.344-4.074-7.716-2.438-20.193 3.318-25.305 4.732-4.201 9.281-5.138 27.105-5.584l17.25-.431V46l-17.75.125c-9.763.068-20.083.466-22.935.883M144 59v13h70V46h-70v13m-.001 66.25l-.001 11.25 21.001-.289 21.001-.288V114h-42l-.001 11.25M.286 128.5c.008 2.75.202 3.756.432 2.236.229-1.52.223-3.77-.014-5-.237-1.23-.425.014-.418 2.764" fill="#1976D2" fill-rule="evenodd"/></svg>